<svg class="icon" width="32" height="32" viewBox="0 0 1024 1024" xmlns="http://www.w3.org/2000/svg"><path d="M512 117.333c229.76 0 416 186.24 416 416s-186.24 416-416 416-416-186.24-416-416 186.24-416 416-416zm-32 65.43c-179.413 16.17-320 166.954-320 350.57 0 194.411 157.59 352 352 352 85.675 0 164.203-30.613 225.237-81.493L498.752 565.333H480v-382.57zm302.507 575.786a350.421 350.421 0 0 0 80.064-193.216H589.227l193.28 193.238zM544 182.784v318.55h318.57C847.36 332.5 712.876 197.973 544 182.783z"/></svg>