<svg class="icon" width="32" height="32" viewBox="0 0 1024 1024" xmlns="http://www.w3.org/2000/svg"><path fill="#FFAD0D" d="M874.667 553.877v192.79h-192V618.645h-64v258.987h-64V554.667h192v127.978h64V553.877h64zm-405.334.79v320h-320v-320h320zm405.334 256v64h-192v-64h192zm-469.334-192h-192v192h192v-192zm-64 64v64h-64v-64h64zm128-533.334v320h-320v-320h320zm405.334 0v320h-320v-320h320zm-469.334 64h-192v192h192v-192zm405.334 0h-192v192h192v-192zm-469.334 64v64h-64v-64h64zm405.334 0v64h-64v-64h64z"/></svg>